<svg xmlns="http://www.w3.org/2000/svg" viewBox="0 0 56.378 60">
    <path d="M17.613 20.925a10.3 10.3 0 0 0 7.565 3.133 13.1 13.1 0 0 0 7.693-2.417 12.751 12.751 0 0 0 4.844-9.707 11.892 11.892 0 0 0-4.627-9.378A11.733 11.733 0 0 0 28.155.397 12.047 12.047 0 0 0 16.333 3.77a11.355 11.355 0 0 0 .03 15.644 11.85 11.85 0 0 0 1.25 1.511Zm-.271-16.209a10.515 10.515 0 0 1 7.252-3.323q.25-.011.5-.011a10.5 10.5 0 0 1 7.024 2.662 10.012 10.012 0 0 1 .653 14.385 10.52 10.52 0 0 1-7.252 3.324 10.342 10.342 0 0 1-10.9-9.706 10 10 0 0 1 2.726-7.331Z"/>
    <path d="m18.082 17.992 2.791-.139 6.3-.314 2.821-.14 1.064-.053a7.7 7.7 0 0 0 1.4-.138.606.606 0 0 0 .245-.228h.008a.691.691 0 0 0 .654-.718 1.758 1.758 0 0 0-.22-.7l-.052-.111c-.22-.526-.438-1.038-.687-1.53a7.457 7.457 0 0 0-1.818-2.4 7.015 7.015 0 0 0-4.223-1.67c-.174-.009-.343-.006-.516 0a6.965 6.965 0 0 0-4.433 2.058 10.145 10.145 0 0 0-1.282 1.174 9.3 9.3 0 0 0-2.352 4.552.3.3 0 0 0 .3.357Zm13.1-3.444c.181.355.344.725.5 1.1l-11.6.64a6.951 6.951 0 0 1 2.071-3.171 5.665 5.665 0 0 1 3.764-1.886h.397a5.627 5.627 0 0 1 3.387 1.343 6.04 6.04 0 0 1 1.481 1.974Zm-8.703-6.695a3.17 3.17 0 0 0 2.449 1.731 3.941 3.941 0 0 0 1.105.162 3.89 3.89 0 0 0 1.515-.307 3.625 3.625 0 0 0 2.01-2.053 3.383 3.383 0 0 0-.111-2.68 3.834 3.834 0 0 0-4.932-1.779 3.621 3.621 0 0 0-2.009 2.053 3.417 3.417 0 0 0-.189.8 3.172 3.172 0 0 0 .162 2.073Zm3.564-3.854a2.369 2.369 0 0 1 2.158 1.3 2.014 2.014 0 0 1 .066 1.6 2.257 2.257 0 0 1-1.256 1.268 2.44 2.44 0 0 1-3.146-1.1 2.014 2.014 0 0 1-.066-1.6 2.256 2.256 0 0 1 1.255-1.271A2.542 2.542 0 0 1 26.043 4Zm10.12 39.844-6.819 7.468a3.079 3.079 0 0 0-1.714-.467 3.919 3.919 0 0 0-3.3 1.976 3.292 3.292 0 0 0 .154 3.4c.051.081.111.155.168.231l-.759.831a1.353 1.353 0 0 0-.779-.031.7.7 0 0 0-.6.077 1.5 1.5 0 0 0-.217 2.276 1.429 1.429 0 0 0 1 .4 1.6 1.6 0 0 0 .2-.012 1.451 1.451 0 0 0 1.07-.666 1.418 1.418 0 0 0 .187-.936l.938-1.027a3.741 3.741 0 0 0 .751.323 3.116 3.116 0 0 0 1.656.329 3.23 3.23 0 0 0 2.761-2.357 3.675 3.675 0 0 0 .085-.824 3.467 3.467 0 0 0-.387-2.255c-.065-.112-.137-.215-.21-.318l6.835-7.485a.691.691 0 1 0-1.02-.932Zm-10.621 9.642a2.533 2.533 0 0 1 2.1-1.259h.022a1.885 1.885 0 0 1 .712.14l-2.766 3.035a1.872 1.872 0 0 1-.068-1.916Zm3.059 2.717a2.226 2.226 0 0 1-1.936.093l2.718-2.977a2.284 2.284 0 0 1-.782 2.884Z"/>
    <path d="M47.205 33.966a24.03 24.03 0 0 0-15.251-6.073A26.817 26.817 0 0 0 .987 55.577a.691.691 0 0 0 .69.659h.031l7.45-.339a.685.685 0 0 0 .621-.48l1.749-1.247c-.009-.18 0-.36 0-.54l.62-.028a.69.69 0 0 0 .658-.721.68.68 0 0 0-.721-.658l-.522.024a17.836 17.836 0 0 1 1.354-5.688 4.221 4.221 0 0 0 .631.08h.03a.691.691 0 0 0 .028-1.381c-.027 0-.053-.011-.08-.013a18.584 18.584 0 0 1 3.375-4.651l.212.217a.691.691 0 1 0 .989-.964l-.186-.191a17.293 17.293 0 0 1 1.79-1.334 17.8 17.8 0 0 1 5.714-1.752l.05 1.1a.69.69 0 0 0 .689.659h.032a.69.69 0 0 0 .658-.721l-.054-1.17c.049 0 .1-.011.144-.014a17.792 17.792 0 0 1 8.995 1.964l-.952 1.73a.691.691 0 0 0 .273.938.681.681 0 0 0 .332.085.692.692 0 0 0 .606-.358l.949-1.726a17.642 17.642 0 0 1 4.859 4.394l-.967.657a.691.691 0 0 0 .777 1.142l.983-.669a17.731 17.731 0 0 1 2.581 6.439l-.842.038.109 1.378.938-.043c.042.382.091.763.109 1.15a.689.689 0 0 0 .24.493.68.68 0 0 0 .523.163l.636-.068a32.35 32.35 0 0 1 6.671-.271.687.687 0 0 0 .544-.185.653.653 0 0 0 .037-.054c.477-.192.392-.355 2.041-1.783a26.806 26.806 0 0 0-9.176-17.872ZM2.346 54.823a25.316 25.316 0 0 1 6.233-17.114l4.73 3.813a19.19 19.19 0 0 0-4.887 13.025Zm24.527-19.778a19.174 19.174 0 0 0-12.6 5.481l-4.757-3.837a25.313 25.313 0 0 1 17.081-7.714c.391-.018.779-.026 1.167-.026a25.237 25.237 0 0 1 7.96 1.289l-2.665 5.542a19.43 19.43 0 0 0-6.186-.735Zm20.149 17.704a19.362 19.362 0 0 0-12.63-16.554l2.638-5.486a25.451 25.451 0 0 1 16.059 21.715 37.709 37.709 0 0 0-6.067.325Z"/>
    <path fill="#e95640" d="M4.786 16.043v.014a109.1 109.1 0 0 1 .912 14.708.69.69 0 0 0 .687.694.691.691 0 0 0 .691-.687 110.666 110.666 0 0 0-.909-14.774 39.381 39.381 0 0 1 3.356 3.751.69.69 0 0 0 .483.738l.316.1a.69.69 0 0 0 .756-1.073 40.791 40.791 0 0 0-5.456-5.968.691.691 0 0 0-1.063.175 69.4 69.4 0 0 1-4.425 6.876.691.691 0 1 0 1.115.815c1.255-1.722 2.433-3.529 3.537-5.369Zm.684-.755a.632.632 0 0 0-.088-.006.663.663 0 0 0-.161.055c.037-.063.078-.123.114-.185.046.043.088.092.134.136Zm37.943 4.464a.692.692 0 0 0 .559-.282c1.26-1.722 2.434-3.529 3.537-5.37v.014a108.789 108.789 0 0 1 .912 14.706.69.69 0 0 0 .686.7.691.691 0 0 0 .691-.686 110.351 110.351 0 0 0-.91-14.775 39.426 39.426 0 0 1 3.357 3.752.69.69 0 0 0 .483.738l.316.1a.69.69 0 0 0 .756-1.073 40.754 40.754 0 0 0-5.456-5.976.691.691 0 0 0-1.063.175 68.748 68.748 0 0 1-4.428 6.878.691.691 0 0 0 .557 1.1Zm4.78-6.406a.63.63 0 0 0-.089-.006.665.665 0 0 0-.16.051c.037-.063.078-.123.115-.187.045.048.085.098.134.142Z"/>
</svg>
