<svg xmlns="http://www.w3.org/2000/svg" viewBox="0 0 60 52.912">
    <path fill="#070142" d="M8.048 28.152a6.366 6.366 0 0 0 3.059 9.9c3.686 1.226 9.049-1.593 9.059-5.993a6.25 6.25 0 0 0-5.952-7.116 6.963 6.963 0 0 0-6.166 3.209Zm9.1 6.469a5.9 5.9 0 0 1-3.855 1.472 5.111 5.111 0 0 1-3.682-1.568c-3.129-3.368.306-8.46 4.52-8.176 4.279.26 6.45 5.31 3.015 8.272ZM.514 52.257a2.665 2.665 0 0 0 1.668.428 203.582 203.582 0 0 0 22.585-.173c.948-.078 1.989-.281 2.1-1.222a.692.692 0 0 0 .113-.467 13.555 13.555 0 0 0-7.109-9.909 13.306 13.306 0 0 0-17.917 5.758C.913 48.217-.889 51.083.513 52.256Zm24.922-2.05c-7.614-.126-15.874.172-23.327.043a12.149 12.149 0 0 1 6.206-8.084 11.966 11.966 0 0 1 17.121 8.041Zm21.796-25.871a6.953 6.953 0 0 0-6.171 3.214 6.368 6.368 0 0 0 3.063 9.891c3.689 1.229 9.049-1.591 9.061-5.986.147-.92-2.053-6.879-5.953-7.119Zm2.932 9.676a5.9 5.9 0 0 1-3.855 1.471 5.111 5.111 0 0 1-3.682-1.568c-3.117-3.357.3-8.461 4.52-8.176 4.285.262 6.448 5.317 3.015 8.273Zm9.829 16.196a13.552 13.552 0 0 0-7.108-9.9 13.3 13.3 0 0 0-17.914 5.756c-1.035 1.535-2.848 4.411-1.442 5.587a2.664 2.664 0 0 0 1.668.428 203.583 203.583 0 0 0 22.585-.173 2.733 2.733 0 0 0 1.853-.64 1.031 1.031 0 0 0 .246-.583.692.692 0 0 0 .112-.475Zm-1.542-.615c-3.8-.062-7.794-.02-11.668.023s-7.872.085-11.66.021a12.156 12.156 0 0 1 6.207-8.084 11.965 11.965 0 0 1 17.121 8.044ZM14.692 19.032c.738.553 2.657.588 3.568.765 2.3.447 4.615.808 6.94 1.1l3.785 7.34a.69.69 0 0 0 .78.358c.66.114 1.118-.546 1.425-1.141l4.148-8.055 8.425-1.378a.7.7 0 0 0 .367-1.2l-6.967-6.554L38.612.813a.7.7 0 0 0-1.031-.721l-8.385 4.6-8.545-4.3a.684.684 0 0 0-.829.158c-.142.036-.26.086-.226.15a3.81 3.81 0 0 0-.341 3.059q.657 3.689 1.6 7.317a35.87 35.87 0 0 0-5.87 5.678c-.516.652-1.089 1.682-.293 2.278Zm14.2-12.924a.7.7 0 0 0 .653-.012l7.462-4.094-1.289 8.413a.7.7 0 0 0 .213.617l6.2 5.832-8.4 1.374a.7.7 0 0 0-.522.393l-3.63 7.7-3.904-7.564a.7.7 0 0 0-.536-.375L16.7 17.317l5.989-6.05a.7.7 0 0 0 .191-.624l-1.589-8.361Z"/>
    <path fill="#e95640" d="M46.728 8.709a.7.7 0 0 0-.9.427 7.979 7.979 0 0 1-1.022 1.966.7017309.7017309 0 0 0 1.144.813 9.392 9.392 0 0 0 1.2-2.31.7.7 0 0 0-.422-.896Zm1.492 3.253-1.881.684a.70211128.70211128 0 0 0 .479 1.32l1.881-.684a.70211128.70211128 0 1 0-.479-1.32Zm-1.153 3.189a.70067753.70067753 0 1 0-.7 1.214 10.326 10.326 0 0 0 2.148.94.70205644.70205644 0 1 0 .413-1.342 8.977 8.977 0 0 1-1.861-.812Z"/>
</svg>
