<svg xmlns="http://www.w3.org/2000/svg" viewBox="0 0 282.278 290.741">
    <path fill="#070142" d="M136.9 228.938c54.524 1.294 110.643-29.922 111.931-79.934 1.317-51.268-54.678-84.222-107.678-85.584-53.336-1.235-110.619 28.768-111.929 79.934-1.322 51.256 54.663 84.223 107.676 85.584Zm-98.275-101.44a3.162 3.162 0 0 0 .581.3 67.54 67.54 0 0 0 14.824 2.541h.194a3.308 3.308 0 0 0 .189-6.61 60.658 60.658 0 0 1-13.373-2.291c-.055-.016-.11 0-.166-.013 15.467-34.903 60.013-52.514 100.113-51.391 2.347.06 4.657.258 6.974.432l-3.1 8.71a3.308 3.308 0 1 0 6.231 2.222l3.591-10.081c.021-.06.008-.121.026-.181 44.506 5.514 88.612 34.9 87.515 77.695a58.333 58.333 0 0 1-6.43 24.965l-7.754-3.775a3.306 3.306 0 1 0-2.9 5.942l7.36 3.583c-16.771 26.2-53.4 43.892-95.429 42.776-4.588-.117-9.1-.533-13.558-1.08l4.214-9.487a3.306 3.306 0 1 0-6.041-2.687l-4.834 10.873a3.091 3.091 0 0 0-.085.384c-25.935-4.5-51.584-16.857-67.539-37.824a27.292 27.292 0 0 0 7.358-2.6 3.309 3.309 0 0 0-3.113-5.839 20.661 20.661 0 0 1-8.411 2.352 59.846 59.846 0 0 1-9.224-32.887 57.386 57.386 0 0 1 2.787-16.029Z" data-name="Tracé 3466"/>
    <path fill="#070142" d="M281.039 147.271c-1.406-64.941-68.517-108.61-136.531-110.355C71.362 35.149 4.686 77.878.275 149.971c-4.3 70.272 41.918 133.576 132.341 140.319 86.427 6.443 160.192-56.67 148.423-143.019ZM144.341 43.53c78 2 131.492 54 130.109 107.876-1.618 62.815-69.147 102.843-135.479 101.056-78-2-131.492-54-130.109-107.876C10.208 92.339 64.486 41.447 144.341 43.53Z" data-name="Tracé 3467"/>
    <path fill="#070142" d="M121.177 143.5c.034.047.09.063.126.108-1.846 5.572-.614 13.465 5 19.475a3.252 3.252 0 0 0-2.03.841 252.721 252.721 0 0 1-28.47 23.107 3.30528562 3.30528562 0 1 0 3.776 5.426 259.27 259.27 0 0 0 29.219-23.709 3.248 3.248 0 0 0 1-2.6 25.519 25.519 0 0 0 13.181 4.728c2.883 3.114 40.766 30.344 53.555 35.467 2.533 1.015 3.877.735 4.521-.017.835-.975.492-2.742.04-3.51-9.431-15.98-19.657-30.006-31.732-46.966a18.981 18.981 0 0 0-2.779-16.709c1.021-.465-1.622 1.327 27.785-21.414a3.30844072 3.30844072 0 0 0-4.056-5.228c-28.445 22.35-27.391 20.709-28.098 22.428-.192-.136-.332-.293-.532-.426a3.282 3.282 0 0 0-2.339-.492c-3.9-6.856-12.282-9.638-20.112-7.607-17.586-16.153-26.992-22.342-47.4-37.653a3.306 3.306 0 0 0-4.676 4.564c13.938 19.535 20.032 30.589 34.021 50.187Zm66.307 49.955c-10.958-6.835-22.854-13.565-34.922-23.2 21.824-4.671 4.419-23.579 34.923 23.2Zm-24.062-45.102c3.116 18.485-29.36 21.922-35.351 5.383-1.285-3.545-1.283-6.541-.1-8.986 5.252 15.071 30.439 13.54 32.954-2.119a11.5 11.5 0 0 1 2.497 5.722Zm-6.666-7.669c-.067 5.036-4.774 10.116-12.734 10.192-6.527-.09-12.531-4.521-12.445-10.563.089-6.179 6.468-10.2 12.511-10.2 6.6.008 12.761 4.435 12.673 10.571Zm-23.952-11.188a13.921 13.921 0 0 0-5.295 8.074 3.3 3.3 0 0 0-2.287.185c-25.658-36.279-33.634-45.669 7.582-8.259Z" data-name="Tracé 3468"/>
    <path fill="#e95640" d="M165.758 31.968a3.309 3.309 0 0 0 3.3-3.609c-.94-10.312-1.268-15.036-2.2-25.35a3.308 3.308 0 1 0-6.588.594c.92 10.148 1.305 15.451 2.2 25.359a3.31 3.31 0 0 0 3.288 3.006Z" data-name="Tracé 3469"/>
    <path fill="#e95640" d="M187.868 32.528c3.813-9.677 5.845-16.737 9.633-26.349a3.308 3.308 0 1 0-6.154-2.428c-3.842 9.754-5.858 16.768-9.633 26.358a3.306 3.306 0 1 0 6.153 2.42Z" data-name="Tracé 3470"/>
    <path fill="#e95640" d="M208.158 37.726a136.891 136.891 0 0 1 17.832-21.621 3.30545054 3.30545054 0 1 0-4.707-4.642 143.578 143.578 0 0 0-18.546 22.473 3.307 3.307 0 0 0 5.421 3.789Z" data-name="Tracé 3471"/>
</svg>
