<svg xmlns="http://www.w3.org/2000/svg" viewBox="0 0 63.998 49.517">
    <path fill="#070142" d="M63.951 46.675c-.32-1.721-6.05-7.817-7.161-9.172-.012-.014-.028-.02-.041-.033a3.287 3.287 0 0 0 .52-1.8c0-.1-.263-26.492-.273-26.595a.75001233.75001233 0 0 0-1.493.145c0 .043.006.086.006.128-.02.122-.021-1.347.26 26.335a1.793 1.793 0 0 1-1.788 1.815l-42.113-.13a1.777 1.777 0 0 1-1.78-1.771c-.063-21.4-.05-20.919-.05-26.332a1.751 1.751 0 0 1 .93-1.515c.762-.4-1.507-.141 42.089-.153a.75.75 0 0 0 0-1.5l-41.231-.06a4.351 4.351 0 0 0-3.895 3.527c-.009.1.086-.959-.007 19.48-.01 2.286-.275 4.61-.09 6.89.054.66.746 1.63.495 2.269a2.944 2.944 0 0 1-1.143 1.085 43.267 43.267 0 0 0-6.934 5.826.585.585 0 0 0-.043.18 1.133 1.133 0 0 0-.21.622 1.3 1.3 0 0 0 .027.148 2.633 2.633 0 0 0 1.034 2.519c.788.6-2.486.224 60.554.911.561.01 1.163.135 1.579-.332a3.742 3.742 0 0 0 .775-2.213c.05-.66.031-.357-.017-.274Zm-35.831-.508.112-1.2 7.966.04.121 1.24Zm25.859-7.17a3.253 3.253 0 0 0 1.7-.485c.722.859 5.478 6.089 6.579 7.951-.89.081 1.448.057-24.427-.2l-.2-2.075a.75.75 0 0 0-.743-.677l-9.335-.053a.75.75 0 0 0-.747.677l-.19 2.013c-.1 0-24.072-.212-24.857-.291 1.3-.968 8.879-7.047 9.018-7.192 1.056.377-1.284.119 43.202.331Z"/>
    <path fill="#070142" d="M36.733 18.079a12.586 12.586 0 0 0-3.967-.943 8.124 8.124 0 0 0-7.08 3.645 8.495 8.495 0 0 0-.586 7.939.75.75 0 0 0 1.368-.615 6.961 6.961 0 0 1 .475-6.506 6.6 6.6 0 0 1 5.747-2.965 11.221 11.221 0 0 1 3.41.8c3.385 1.577 5.056 7.462 1.4 7.007-.912-.106-1.054-.539-1.343-1.559a4.312 4.312 0 0 0-.908-1.9 3.39 3.39 0 0 0-5.128.845 6.1 6.1 0 0 0 .852 5.216 11.1 11.1 0 0 0 4.658 3.331.75017481.75017481 0 0 0 .64-1.357 9.8 9.8 0 0 1-4.072-2.824 4.81 4.81 0 0 1-.72-3.735 1.935 1.935 0 0 1 2.678-.442c.678.717.482 2.456 1.734 3.394a3.566 3.566 0 0 0 4.32-.382 4.007 4.007 0 0 0 .578-4.049 7.865 7.865 0 0 0-4.056-4.9Z"/>
    <path fill="#070142" d="M30.521 21.752c2.74-1.8 6.762-.116 6.8 2.969a.750054.750054 0 0 0 1.5-.018 5.45 5.45 0 0 0-5.161-5.158 5.666 5.666 0 0 0-6.428 5.488 10.007 10.007 0 0 0 2.82 6.86.75006666.75006666 0 1 0 1.1-1.02c-2.481-2.676-3.653-7.126-.631-9.121Z"/>
    <path fill="#070142" d="M38.662 28.809a8.392 8.392 0 0 1-1.61.024 3.834 3.834 0 0 1-3.386-3.918.75.75 0 0 0-.727-.772.764.764 0 0 0-.772.728 5.339 5.339 0 0 0 5.45 5.487c.405 0 .8-.03 1.161-.058a.75.75 0 0 0 .69-.806.761.761 0 0 0-.806-.685Zm2.554-10.191a10.953 10.953 0 0 0-17.207.961.75.75 0 1 0 1.229.859 9.474 9.474 0 0 1 14.851-.83 2.314 2.314 0 0 1 .4.563.7510208.7510208 0 0 0 1.377-.6 3.7 3.7 0 0 0-.65-.953Z"/>
    <path fill="#070142" d="M27.691 15.344a11.518 11.518 0 0 1 10.364-.066.75.75 0 1 0 .677-1.338 13.041 13.041 0 0 0-11.733.074.75008933.75008933 0 0 0 .694 1.33Zm-12.54 27.52 7.8.066a.75.75 0 0 0 .749-.784v-.065a.749.749 0 0 0-.952-.652l-7.591-.064a.750006.750006 0 0 0-.006 1.5Zm26.031 0 7.8.066a.75.75 0 0 0 .749-.784v-.065a.749.749 0 0 0-.952-.652l-7.591-.064a.750006.750006 0 0 0-.006 1.5Z"/>
    <path fill="#e95640" d="M58.279 8.272a.75.75 0 0 0 .744.66c.066 0-.028.007 3.288-.393a.75.75 0 1 0-.18-1.488l-3.2.387a.749.749 0 0 0-.652.834Zm-.37-5.861-1.888 2.063a.75023863.75023863 0 0 0 1.106 1.014l1.888-2.062a.75023863.75023863 0 0 0-1.106-1.014Zm-4.103 1.398a.75.75 0 0 0 .749-.714l.112-2.309a.7508635.7508635 0 0 0-1.5-.072l-.112 2.309a.75.75 0 0 0 .751.786Z"/>
    <path fill="#070142" d="M51.37 9.298H14.356a2.347 2.347 0 0 0-2.333 2.394l.288 21.712a2.357 2.357 0 0 0 2.332 2.331h36.8a2.347 2.347 0 0 0 2.333-2.37l-.077-21.713a2.351 2.351 0 0 0-2.329-2.354Zm.072 24.937h-36.8a.851.851 0 0 1-.832-.851c-.206-22.651-.522-21.85-.038-22.34.46-.467-1.589-.155 37.6-.246a.849.849 0 0 1 .832.859l.072 21.713a.849.849 0 0 1-.835.865Z"/>
</svg>
