<svg xmlns="http://www.w3.org/2000/svg" viewBox="0 0 56.184 60.25">
    <path fill="#e95640" d="m2.851291 10.929122 6.138498 1.781012a.65399902.65399902 0 1 0 .365986-1.255711L3.217277 9.673411a.65399902.65399902 0 1 0-.365986 1.255711Zm5.096657-7.832873a.65399902.65399902 0 1 0-.957571.890302l3.672141 3.94517a.65499902.65499902 0 0 0 .957588-.892538Zm6.230334 1.878311a.65444573.65444573 0 0 0 1.193263-.537885 10.9359836 10.9359836 0 0 1-.92168-3.47748.65399902.65399902 0 1 0-1.2979.1243 12.23498165 12.23498165 0 0 0 1.026317 3.891065Z"/>
    <path d="M48.26 39.026c-6.741-14.683-6.511-14.453-7.207-15.053a1.877 1.877 0 0 0-1.108-.433 1.264 1.264 0 0 0-1.46.655L27.44 46.573l-2.417-3.622c-5.666-8.491-5.657-8.615-6.631-9.4a4.051 4.051 0 0 0-1.189-.664 1.72 1.72 0 0 0-.428-.193v-9.487a12.6 12.6 0 0 0 8.667-2.154c.475-.318.932-.666 1.387-1.014 2.392-1.827 2.536-1.489 2.724-1.927v-.014a1.9 1.9 0 0 0 .048-.25 1.721 1.721 0 0 0-.054-.248s0-.008 0-.012c-.15-.049.232-.58-3.1-.887-2.741-.253-2.945-.66-5.508-2.3a8.033 8.033 0 0 0-3.512-1.374 1.686 1.686 0 0 0-.652-2.662 1.695 1.695 0 0 0-1.416 3.074.64.64 0 0 0 .1.037c.013 21.426-.021 19.075.015 19.371-.7.4.215-.558-15.353 23.412a.771.771 0 0 0 .358 1.063 1.522 1.522 0 0 0 .036.223c.28 1.117 2.237 1.417 3.126 1.334 1.482-.139 2.855-.872 4.323-1.129 2.594-.455 5.178.6 7.72 1.3a29.667 29.667 0 0 0 12.633.683c3.353-.547 6.659-1.675 10.051-1.527 2.861.125 5.6 1.152 8.416 1.708s5.936.574 8.292-1.107c.9-.644 1.515-1.725.76-2.5.095-.939.106-.552-7.576-17.281Zm-8.653-14.153 4.012 8.769c-.594.757-1.184 1.388-1.782 2.105-.539-.676-1.255-1.619-1.89-2.388a.653.653 0 0 0-1.062.077 36.706 36.706 0 0 1-3.08 4.3c-.467-.839-.892-1.7-1.275-2.58ZM33.794 36.65c.416.869.858 1.727 1.352 2.552a.653.653 0 0 0 1.054.091 39.907 39.907 0 0 0 3.312-4.4c1.934 2.452 1.858 2.52 2.343 2.546a.654.654 0 0 0 .507-.259c.53-.7 1.211-1.435 1.865-2.215l9.527 20.822c-8.406.348 7.326.261-51.935.261l8.613-13.334a13.112 13.112 0 0 1 .443 1.526.653.653 0 0 0 1.1.321 22.7 22.7 0 0 1 3.644-3.023 6.49 6.49 0 0 0 1.384 2.024.653.653 0 0 0 1.042-.171 13.1 13.1 0 0 1 1.282-2.052 14.743 14.743 0 0 0 3.548 1.834l6.05 8.807a.642.642 0 0 0 1.143-.158c.51-.92-.3-1.748-1.793-3.99Zm-6.54-18.541c-.97.669-1.728 1.316-2.543 1.862a11.287 11.287 0 0 1-7.936 1.919v-7.57a5.946 5.946 0 0 1 3.46 1.178c3.84 2.47 3.172 2.102 7.019 2.611ZM15.985 34.117a.391.391 0 0 1 .666-.01l4.824 7.02a13.587 13.587 0 0 1-1.865-1.2.655.655 0 0 0-.9.1 14.264 14.264 0 0 0-1.364 1.929c-.876-1.238-.586-1.795-1.152-2.014a.648.648 0 0 0-.579.053 23.96 23.96 0 0 0-3.764 2.868 14.212 14.212 0 0 1-.474-1.614Z"/>
</svg>
