<svg xmlns="http://www.w3.org/2000/svg" viewBox="0 0 58.274 60">
    <path fill="#070142" d="m57.801 9.08-5.442-1.836 1.908-1.909c-.111-.507-.162-.788-.226-.991a.687.687 0 0 0-1.169-.579l-2.221 2.222A39.779 39.779 0 0 0 49.767.54a.7.7 0 0 0-1.082-.409c-3.43 2.457-6.269 3.322-6.679 6.476-.16-.2-.32-.385-.481-.557a.7.7 0 0 0-.832-.141c-4.188 2.2-4.188 2.914-4.188 3.182 0 .291.17.54 1.4 2.77.784 1.422 1.951 2.781 2.719 4.152l-4.851 4.851a24.1 24.1 0 0 0-3.755-3.033c-8.172-5.927-19.107-6.913-25.627.268.015-.022.027-.046.043-.067a9.673 9.673 0 0 0-1.546 1.278c-7.853 8.67-5.561 24.017 2.017 31.9 4.216 4.387 7.522 6.975 12.884 8.176 5.194 1.164 10.282.867 15.486-2.6 4.37-2.914 8.233-8.851 8.3-14.66 1.1-6.927-1.714-14.334-6.372-19.728l5.561-5.561a23.475 23.475 0 0 0 7.148 2.888c.5 0 .65-.46.9-.719.682-.883 1.714-2.217 2.246-3.01a.694.694 0 0 0 .1-.559c-.1-.4-.36-.387-.81-.766a8.526 8.526 0 0 0 2.627-.393c.744-.5 1.55-1.632 3.19-4.159a.695.695 0 0 0-.361-1.037Zm-19.78.1a23.812 23.812 0 0 1 2.836-1.78c.574.7 1.185 1.59 1.8 2.247a.7.7 0 0 0 1.115-.814 3.417 3.417 0 0 1 .729-4.158 40.394 40.394 0 0 1 4.13-2.822c.763 3.69.562 4.936.8 5.346l-1.5 1.5-.519-1.037a.695.695 0 1 0-1.243.621c.8 1.509.5 1.142.773 1.406l-2.192 2.192-1.161-1.277a.695.695 0 0 0-1.029.934l1.206 1.327-2.137 2.137c-1.48-2.464-1.351-1.597-3.608-5.827Zm-13.567 23c-1.034-.83-2.112-1.154-2.523-.712-.458.492.088 1.744 1.219 2.8 1.952 1.815 3.85 1.526 2.692-.506l1.94-1.94c1.929 3.256 1.44 7.148-1.933 7.478a7.032 7.032 0 0 1-5.2-2.1c-5.658-5.211-2.446-12.636 3.761-8.618a13.284 13.284 0 0 1 2.072 1.575Zm3.019-3.019a14.549 14.549 0 0 0-2.307-1.751c-3.085-2-6.168-1.782-7.855.546-3.379 4.634 2.481 13.331 8.673 12.724 4.066-.4 5.862-5.085 2.8-9.869l3.8-3.8c6.573 8.433 4.509 19.273-4.212 20.645-3.808.6-8.077-.762-11.708-3.733-6.513-5.348-8.901-14.214-5.32-19.771 3.716-5.76 11.289-5.358 16.96-1.225a18.814 18.814 0 0 1 2.914 2.489Zm12.871 18.122c-3.847 6.641-11.711 8.435-19.338 5.848a2.485 2.485 0 0 1-.266-.085C7.002 48.192-.301 31.61 5.654 21.455c5.119-8.851 16.674-8.94 25.55-2.5a23.735 23.735 0 0 1 3.589 2.89l-2.587 2.587a20.405 20.405 0 0 0-3.081-2.631c-6.434-4.686-14.849-4.749-18.944 1.6-3.955 6.131-1.439 15.821 5.609 21.6 3.618 2.961 8.28 4.743 12.8 4.03 9.9-1.556 12.319-13.75 4.988-23.009l2.64-2.64c5.644 6.573 8.426 16.521 4.126 23.901Zm13.922-34.208a17.355 17.355 0 0 1-3.786.2.7.7 0 0 0-.4 1.307 11.181 11.181 0 0 1 1.432 1.2c-.554.765-1.3 1.729-1.868 2.463a23.171 23.171 0 0 1-5.863-2.421l2.9-2.9.327.363a.695.695 0 0 0 1.033-.93l-.376-.416 3.6-3.6 5.245 1.77a14.693 14.693 0 0 1-2.244 2.964Z"/>
    <path fill="#e95640" d="M21.509 2.942a.7.7 0 0 0-.072.98c2.738 3.047 2.672 3.39 3.241 3.39a.7.7 0 0 0 .526-1.149l-2.715-3.148a.693.693 0 0 0-.98-.073Zm5.219-1.257.176 4.036a.7.7 0 0 0 1.389-.062l-.176-4.034a.7.7 0 0 0-1.389.06Zm4.836-.101-1.1 2.751a.695.695 0 1 0 1.29.516l1.1-2.751a.695.695 0 1 0-1.29-.516Z"/>
</svg>
